<svg width="21" height="21" fill="none" xmlns="http://www.w3.org/2000/svg"><path d="M16.238 21c-.204 0-.408-.023-.608-.068a20.465 20.465 0 0 1-10.1-5.439 20.461 20.461 0 0 1-5.47-10.1 2.909 2.909 0 0 1 .069-1.44c.144-.466.402-.886.75-1.22L3.312.34a1.211 1.211 0 0 1 .936-.336c.176.02.347.077.499.17.152.094.283.22.382.371l3.039 4.593A1.012 1.012 0 0 1 8.1 6.32L6.575 8.184a11.774 11.774 0 0 0 2.534 3.66 11.696 11.696 0 0 0 3.69 2.543l1.89-1.536a.984.984 0 0 1 1.13-.074l4.589 3.033c.157.096.291.228.392.384a1.26 1.26 0 0 1-.143 1.55l-2.37 2.398c-.27.274-.59.491-.94.638a2.827 2.827 0 0 1-1.109.22ZM4.15 1.235 1.72 3.628a1.584 1.584 0 0 0-.422.684c-.08.262-.092.54-.034.808a19.206 19.206 0 0 0 5.111 9.484 19.252 19.252 0 0 0 9.506 5.116c.27.058.55.046.816-.034.265-.08.507-.227.703-.426l2.37-2.4-4.43-2.927-2.03 1.653a.603.603 0 0 1-.56.106 12.166 12.166 0 0 1-4.473-2.952 12.131 12.131 0 0 1-2.96-4.475.635.635 0 0 1 .146-.59l1.641-2.008L4.15 1.235Z" fill="#000"/></svg>